<svg xmlns="http://www.w3.org/2000/svg" viewBox="0 0 640 512" role="img" aria-labelledby="title desc">
  <title id="title">Pending trader portrait</title>
  <desc id="desc">Retro trading desk placeholder used while a trader portrait is pending.</desc>
  <defs>
    <linearGradient id="bg" x1="0" x2="1" y1="0" y2="1">
      <stop offset="0" stop-color="#152016"/>
      <stop offset="0.48" stop-color="#0a0f0c"/>
      <stop offset="1" stop-color="#2f2614"/>
    </linearGradient>
    <radialGradient id="glow" cx="50%" cy="46%" r="45%">
      <stop offset="0" stop-color="#68a652" stop-opacity="0.38"/>
      <stop offset="1" stop-color="#68a652" stop-opacity="0"/>
    </radialGradient>
    <pattern id="scan" width="8" height="8" patternUnits="userSpaceOnUse">
      <path d="M0 0H8" stroke="#68a652" stroke-opacity="0.16"/>
    </pattern>
  </defs>
  <rect width="640" height="512" fill="url(#bg)"/>
  <rect width="640" height="512" fill="url(#glow)"/>
  <path d="M96 385c42-75 91-112 147-112h154c55 0 104 37 147 112v31H96v-31Z" fill="#151b17" stroke="#daad5e" stroke-width="8"/>
  <path d="M233 205c0-56 38-96 87-96s87 40 87 96-38 96-87 96-87-40-87-96Z" fill="#1f2a21" stroke="#68a652" stroke-width="8"/>
  <path d="M257 196h126M270 231h100" stroke="#daad5e" stroke-width="12" stroke-linecap="square" opacity="0.78"/>
  <path d="M178 412h284M214 451h212" stroke="#68a652" stroke-width="10" stroke-linecap="square" opacity="0.55"/>
  <rect width="640" height="512" fill="url(#scan)"/>
</svg>
